<svg width="476" height="386" viewBox="0 0 476 386" fill="none" xmlns="http://www.w3.org/2000/svg">
<path d="M49.2348 148.45L193.875 302.698L124.225 148.45H49.2348ZM237.754 327.517L318.78 148.45H156.728L237.754 327.517ZM124.921 118.76L172.283 29.69H111.456L44.5915 118.76H124.921H124.921ZM281.634 302.698L426.274 148.45H351.284L281.634 302.698ZM158.585 118.76H316.923L269.561 29.69H205.947L158.585 118.76ZM350.587 118.76H430.917L364.053 29.69H303.226L350.587 118.76ZM383.323 6.0309L472.475 124.791C474.642 127.574 475.648 130.783 475.493 134.417C475.338 138.051 474.023 141.182 471.546 143.811L248.666 381.33C245.88 384.423 242.243 385.969 237.754 385.969C233.266 385.969 229.629 384.423 226.843 381.33L3.9623 143.811C1.48588 141.182 0.170267 138.051 0.0154788 134.417C-0.139309 130.783 0.866812 127.574 3.03384 124.791L92.1858 6.03116C94.9718 2.01039 98.9187 0 104.026 0H371.482C376.59 0 380.537 2.01039 383.323 6.03116V6.0309Z" fill="white"/>
</svg>
