<svg width="347" height="76" viewBox="0 0 347 76" fill="none" xmlns="http://www.w3.org/2000/svg">
<path d="M7.65369 31.0769L30.1384 55.0553L19.3111 31.0769H7.65369ZM36.9596 58.9135L49.5553 31.0769H24.3638L36.9596 58.9135ZM19.4194 26.4616L26.7819 12.6154H17.3261L6.93187 26.4616H19.4193H19.4194ZM43.7808 55.0553L66.2654 31.0769H54.6081L43.7808 55.0553ZM24.6525 26.4616H49.2666L41.904 12.6154H32.0151L24.6525 26.4616ZM54.4998 26.4616H66.9872L56.5931 12.6154H47.1373L54.4998 26.4616ZM59.5886 8.93752L73.4475 27.3991C73.7844 27.8318 73.9408 28.3306 73.9167 28.8954C73.8927 29.4603 73.6882 29.9471 73.3032 30.3558L38.6558 67.2788C38.2227 67.7596 37.6573 68 36.9596 68C36.2618 68 35.6964 67.7596 35.2633 67.2788L0.615951 30.3558C0.230984 29.9471 0.0264684 29.4603 0.00240622 28.8954C-0.021656 28.3306 0.134748 27.8318 0.471619 27.3991L14.3305 8.93756C14.7636 8.31252 15.3772 8 16.1712 8H57.748C58.542 8 59.1555 8.31252 59.5886 8.93756V8.93752Z" fill="url(#paint0_linear_125_1858)"/>
<path d="M106.373 7.25V30H102.061L92.3887 14.2188V30H88.0918V7.25H92.3887L102.092 23.0469V7.25H106.373ZM117.621 30.3125C116.34 30.3125 115.189 30.1042 114.168 29.6875C113.147 29.2708 112.278 28.6927 111.559 27.9531C110.85 27.2031 110.304 26.3333 109.918 25.3438C109.543 24.3438 109.356 23.2708 109.356 22.125V21.5C109.356 20.1979 109.543 19.0156 109.918 17.9531C110.293 16.8802 110.824 15.9583 111.512 15.1875C112.199 14.4167 113.022 13.8229 113.981 13.4062C114.939 12.9896 115.996 12.7812 117.153 12.7812C118.35 12.7812 119.408 12.9844 120.324 13.3906C121.241 13.7865 122.007 14.349 122.621 15.0781C123.236 15.8073 123.699 16.6823 124.012 17.7031C124.324 18.7135 124.481 19.8333 124.481 21.0625V22.7969H111.231V19.9531H120.418V19.6406C120.397 18.9844 120.272 18.3854 120.043 17.8438C119.814 17.2917 119.46 16.8542 118.981 16.5312C118.502 16.1979 117.882 16.0312 117.121 16.0312C116.507 16.0312 115.97 16.1667 115.512 16.4375C115.064 16.6979 114.689 17.0729 114.387 17.5625C114.095 18.0417 113.877 18.6146 113.731 19.2812C113.585 19.9479 113.512 20.6875 113.512 21.5V22.125C113.512 22.8333 113.606 23.4896 113.793 24.0938C113.991 24.6979 114.278 25.224 114.653 25.6719C115.038 26.1094 115.496 26.4531 116.028 26.7031C116.569 26.9427 117.184 27.0625 117.871 27.0625C118.736 27.0625 119.517 26.8958 120.215 26.5625C120.923 26.2188 121.538 25.7135 122.059 25.0469L124.137 27.2031C123.783 27.724 123.304 28.224 122.699 28.7031C122.106 29.1823 121.387 29.5729 120.543 29.875C119.699 30.1667 118.725 30.3125 117.621 30.3125ZM131.541 25.9375L135.245 13.0938H137.87L137.088 17.5312L133.354 30H131.088L131.541 25.9375ZM129.495 13.0938L132.276 25.9688L132.526 30H129.916L125.479 13.0938H129.495ZM141.307 25.7812L144.026 13.0938H148.026L143.62 30H141.01L141.307 25.7812ZM138.276 13.0938L141.948 25.8125L142.432 30H140.166L136.401 17.5312L135.635 13.0938H138.276ZM162.507 7.25V30H158.21V7.25H162.507ZM170.474 16.7031V30H166.349V13.0938H170.224L170.474 16.7031ZM169.817 20.9375H168.599C168.609 19.7083 168.776 18.5938 169.099 17.5938C169.422 16.5938 169.875 15.7344 170.458 15.0156C171.052 14.2969 171.755 13.7448 172.567 13.3594C173.38 12.974 174.286 12.7812 175.286 12.7812C176.099 12.7812 176.833 12.8958 177.489 13.125C178.146 13.3542 178.708 13.7188 179.177 14.2188C179.656 14.7188 180.021 15.375 180.271 16.1875C180.531 16.9896 180.661 17.9792 180.661 19.1562V30H176.505V19.125C176.505 18.3542 176.39 17.7448 176.161 17.2969C175.942 16.849 175.62 16.5312 175.192 16.3438C174.776 16.1562 174.26 16.0625 173.646 16.0625C173.01 16.0625 172.453 16.1927 171.974 16.4531C171.505 16.7031 171.109 17.0521 170.786 17.5C170.474 17.9479 170.234 18.4635 170.067 19.0469C169.901 19.6302 169.817 20.2604 169.817 20.9375ZM191.894 13.0938V16.0625H182.206V13.0938H191.894ZM184.8 8.9375H188.941V25.125C188.941 25.625 189.008 26.0104 189.144 26.2812C189.279 26.5521 189.482 26.7344 189.753 26.8281C190.024 26.9219 190.347 26.9688 190.722 26.9688C190.993 26.9688 191.243 26.9531 191.472 26.9219C191.701 26.8906 191.894 26.8594 192.05 26.8281L192.066 29.9219C191.722 30.0365 191.331 30.1302 190.894 30.2031C190.467 30.276 189.982 30.3125 189.441 30.3125C188.514 30.3125 187.701 30.1562 187.003 29.8438C186.305 29.5208 185.764 29.0052 185.378 28.2969C184.993 27.5781 184.8 26.6302 184.8 25.4531V8.9375ZM201.83 30.3125C200.548 30.3125 199.397 30.1042 198.376 29.6875C197.356 29.2708 196.486 28.6927 195.767 27.9531C195.059 27.2031 194.512 26.3333 194.126 25.3438C193.751 24.3438 193.564 23.2708 193.564 22.125V21.5C193.564 20.1979 193.751 19.0156 194.126 17.9531C194.501 16.8802 195.033 15.9583 195.72 15.1875C196.408 14.4167 197.231 13.8229 198.189 13.4062C199.147 12.9896 200.205 12.7812 201.361 12.7812C202.559 12.7812 203.616 12.9844 204.533 13.3906C205.449 13.7865 206.215 14.349 206.83 15.0781C207.444 15.8073 207.908 16.6823 208.22 17.7031C208.533 18.7135 208.689 19.8333 208.689 21.0625V22.7969H195.439V19.9531H204.626V19.6406C204.606 18.9844 204.481 18.3854 204.251 17.8438C204.022 17.2917 203.668 16.8542 203.189 16.5312C202.71 16.1979 202.09 16.0312 201.33 16.0312C200.715 16.0312 200.179 16.1667 199.72 16.4375C199.272 16.6979 198.897 17.0729 198.595 17.5625C198.304 18.0417 198.085 18.6146 197.939 19.2812C197.793 19.9479 197.72 20.6875 197.72 21.5V22.125C197.72 22.8333 197.814 23.4896 198.001 24.0938C198.199 24.6979 198.486 25.224 198.861 25.6719C199.246 26.1094 199.705 26.4531 200.236 26.7031C200.777 26.9427 201.392 27.0625 202.08 27.0625C202.944 27.0625 203.725 26.8958 204.423 26.5625C205.132 26.2188 205.746 25.7135 206.267 25.0469L208.345 27.2031C207.991 27.724 207.512 28.224 206.908 28.7031C206.314 29.1823 205.595 29.5729 204.751 29.875C203.908 30.1667 202.934 30.3125 201.83 30.3125ZM215.172 16.5469V30H211.047V13.0938H214.953L215.172 16.5469ZM220.312 12.9844L220.25 16.8281C220.021 16.7865 219.76 16.7552 219.468 16.7344C219.187 16.7135 218.922 16.7031 218.672 16.7031C218.036 16.7031 217.479 16.7917 217 16.9688C216.521 17.1354 216.119 17.3802 215.797 17.7031C215.484 18.026 215.244 18.4219 215.078 18.8906C214.911 19.349 214.817 19.8698 214.797 20.4531L213.906 20.3438C213.906 19.2708 214.015 18.276 214.234 17.3594C214.453 16.4427 214.771 15.6406 215.187 14.9531C215.604 14.2656 216.125 13.7344 216.75 13.3594C217.385 12.974 218.114 12.7812 218.937 12.7812C219.166 12.7812 219.411 12.8021 219.672 12.8438C219.942 12.875 220.156 12.9219 220.312 12.9844ZM229.451 30.3125C228.17 30.3125 227.019 30.1042 225.998 29.6875C224.977 29.2708 224.107 28.6927 223.389 27.9531C222.68 27.2031 222.133 26.3333 221.748 25.3438C221.373 24.3438 221.185 23.2708 221.185 22.125V21.5C221.185 20.1979 221.373 19.0156 221.748 17.9531C222.123 16.8802 222.654 15.9583 223.342 15.1875C224.029 14.4167 224.852 13.8229 225.81 13.4062C226.769 12.9896 227.826 12.7812 228.982 12.7812C230.18 12.7812 231.238 12.9844 232.154 13.3906C233.071 13.7865 233.836 14.349 234.451 15.0781C235.066 15.8073 235.529 16.6823 235.842 17.7031C236.154 18.7135 236.31 19.8333 236.31 21.0625V22.7969H223.06V19.9531H232.248V19.6406C232.227 18.9844 232.102 18.3854 231.873 17.8438C231.644 17.2917 231.29 16.8542 230.81 16.5312C230.331 16.1979 229.711 16.0312 228.951 16.0312C228.336 16.0312 227.8 16.1667 227.342 16.4375C226.894 16.6979 226.519 17.0729 226.217 17.5625C225.925 18.0417 225.706 18.6146 225.56 19.2812C225.415 19.9479 225.342 20.6875 225.342 21.5V22.125C225.342 22.8333 225.435 23.4896 225.623 24.0938C225.821 24.6979 226.107 25.224 226.482 25.6719C226.868 26.1094 227.326 26.4531 227.857 26.7031C228.399 26.9427 229.014 27.0625 229.701 27.0625C230.566 27.0625 231.347 26.8958 232.045 26.5625C232.753 26.2188 233.368 25.7135 233.889 25.0469L235.967 27.2031C235.613 27.724 235.133 28.224 234.529 28.7031C233.935 29.1823 233.217 29.5729 232.373 29.875C231.529 30.1667 230.555 30.3125 229.451 30.3125ZM247.965 25.375C247.965 25.0208 247.871 24.7031 247.684 24.4219C247.496 24.1406 247.142 23.8854 246.621 23.6562C246.111 23.4167 245.361 23.1927 244.371 22.9844C243.496 22.7969 242.689 22.5625 241.949 22.2812C241.21 22 240.574 21.6615 240.043 21.2656C239.512 20.8594 239.095 20.3854 238.793 19.8438C238.501 19.2917 238.356 18.6562 238.356 17.9375C238.356 17.2396 238.507 16.5833 238.809 15.9688C239.111 15.3438 239.548 14.7969 240.121 14.3281C240.694 13.849 241.392 13.474 242.215 13.2031C243.038 12.9219 243.965 12.7812 244.996 12.7812C246.434 12.7812 247.668 13.0156 248.699 13.4844C249.741 13.9531 250.538 14.599 251.09 15.4219C251.642 16.2344 251.918 17.151 251.918 18.1719H247.793C247.793 17.724 247.689 17.3177 247.481 16.9531C247.283 16.5885 246.975 16.2969 246.559 16.0781C246.142 15.849 245.616 15.7344 244.981 15.7344C244.408 15.7344 243.923 15.8281 243.527 16.0156C243.142 16.2031 242.85 16.4479 242.652 16.75C242.455 17.0521 242.356 17.3854 242.356 17.75C242.356 18.0208 242.408 18.2656 242.512 18.4844C242.626 18.6927 242.809 18.8854 243.059 19.0625C243.309 19.2396 243.647 19.401 244.074 19.5469C244.512 19.6927 245.048 19.8333 245.684 19.9688C246.944 20.2188 248.043 20.5521 248.981 20.9688C249.928 21.375 250.668 21.9167 251.199 22.5938C251.731 23.2708 251.996 24.1354 251.996 25.1875C251.996 25.9375 251.835 26.625 251.512 27.25C251.189 27.8646 250.72 28.401 250.106 28.8594C249.491 29.3177 248.757 29.6771 247.902 29.9375C247.048 30.1875 246.085 30.3125 245.012 30.3125C243.46 30.3125 242.147 30.0365 241.074 29.4844C240.001 28.9219 239.189 28.2135 238.637 27.3594C238.085 26.4948 237.809 25.599 237.809 24.6719H241.762C241.793 25.3281 241.97 25.8542 242.293 26.25C242.616 26.6458 243.022 26.9323 243.512 27.1094C244.012 27.276 244.538 27.3594 245.09 27.3594C245.715 27.3594 246.241 27.276 246.668 27.1094C247.095 26.9323 247.418 26.6979 247.637 26.4062C247.856 26.1042 247.965 25.7604 247.965 25.375ZM262.729 13.0938V16.0625H253.041V13.0938H262.729ZM255.635 8.9375H259.776V25.125C259.776 25.625 259.843 26.0104 259.979 26.2812C260.114 26.5521 260.317 26.7344 260.588 26.8281C260.859 26.9219 261.182 26.9688 261.557 26.9688C261.828 26.9688 262.078 26.9531 262.307 26.9219C262.536 26.8906 262.729 26.8594 262.885 26.8281L262.901 29.9219C262.557 30.0365 262.166 30.1302 261.729 30.2031C261.302 30.276 260.817 30.3125 260.276 30.3125C259.349 30.3125 258.536 30.1562 257.838 29.8438C257.14 29.5208 256.599 29.0052 256.213 28.2969C255.828 27.5781 255.635 26.6302 255.635 25.4531V8.9375ZM101.404 60.5156H105.701C105.587 62.0365 105.165 63.3854 104.436 64.5625C103.706 65.7292 102.691 66.6458 101.389 67.3125C100.087 67.9792 98.5085 68.3125 96.6543 68.3125C95.2272 68.3125 93.9408 68.0625 92.7949 67.5625C91.6595 67.0521 90.6855 66.3281 89.873 65.3906C89.071 64.4427 88.4564 63.3073 88.0293 61.9844C87.6022 60.651 87.3887 59.1562 87.3887 57.5V55.7656C87.3887 54.1094 87.6074 52.6146 88.0449 51.2812C88.4824 49.9479 89.1074 48.8125 89.9199 47.875C90.7428 46.9271 91.7272 46.1979 92.873 45.6875C94.0293 45.1771 95.321 44.9219 96.748 44.9219C98.6022 44.9219 100.17 45.2656 101.451 45.9531C102.732 46.6302 103.727 47.5625 104.436 48.75C105.144 49.9375 105.571 51.3021 105.717 52.8438H101.42C101.337 51.8854 101.128 51.0729 100.795 50.4062C100.472 49.7396 99.9824 49.2344 99.3262 48.8906C98.6803 48.5365 97.821 48.3594 96.748 48.3594C95.9147 48.3594 95.1803 48.5156 94.5449 48.8281C93.9199 49.1406 93.3991 49.6094 92.9824 50.2344C92.5658 50.849 92.2533 51.6198 92.0449 52.5469C91.8366 53.4635 91.7324 54.526 91.7324 55.7344V57.5C91.7324 58.6562 91.8262 59.6927 92.0137 60.6094C92.2012 61.526 92.4928 62.3021 92.8887 62.9375C93.2845 63.5729 93.7949 64.0573 94.4199 64.3906C95.0449 64.724 95.7897 64.8906 96.6543 64.8906C97.7064 64.8906 98.5605 64.724 99.2168 64.3906C99.8835 64.0573 100.389 63.5677 100.732 62.9219C101.087 62.276 101.311 61.474 101.404 60.5156ZM112.684 51.0938V68H108.543V51.0938H112.684ZM108.262 46.6719C108.262 46.0573 108.47 45.5469 108.887 45.1406C109.314 44.7344 109.887 44.5312 110.606 44.5312C111.324 44.5312 111.892 44.7344 112.309 45.1406C112.736 45.5469 112.949 46.0573 112.949 46.6719C112.949 47.276 112.736 47.7812 112.309 48.1875C111.892 48.5938 111.324 48.7969 110.606 48.7969C109.887 48.7969 109.314 48.5938 108.887 48.1875C108.47 47.7812 108.262 47.276 108.262 46.6719ZM120.338 54.5469V68H116.213V51.0938H120.12L120.338 54.5469ZM125.479 50.9844L125.416 54.8281C125.187 54.7865 124.927 54.7552 124.635 54.7344C124.354 54.7135 124.088 54.7031 123.838 54.7031C123.203 54.7031 122.646 54.7917 122.166 54.9688C121.687 55.1354 121.286 55.3802 120.963 55.7031C120.651 56.026 120.411 56.4219 120.245 56.8906C120.078 57.349 119.984 57.8698 119.963 58.4531L119.073 58.3438C119.073 57.2708 119.182 56.276 119.401 55.3594C119.62 54.4427 119.937 53.6406 120.354 52.9531C120.771 52.2656 121.291 51.7344 121.916 51.3594C122.552 50.974 123.281 50.7812 124.104 50.7812C124.333 50.7812 124.578 50.8021 124.838 50.8438C125.109 50.875 125.323 50.9219 125.479 50.9844ZM133.962 65.0625C134.545 65.0625 135.066 64.9479 135.524 64.7188C135.982 64.4896 136.347 64.1667 136.618 63.75C136.899 63.3333 137.05 62.849 137.071 62.2969H140.962C140.941 63.4427 140.618 64.4688 139.993 65.375C139.368 66.2812 138.534 67 137.493 67.5312C136.462 68.0521 135.305 68.3125 134.024 68.3125C132.722 68.3125 131.587 68.0938 130.618 67.6562C129.649 67.2188 128.842 66.6094 128.196 65.8281C127.561 65.0469 127.081 64.1406 126.758 63.1094C126.446 62.0781 126.29 60.974 126.29 59.7969V59.2969C126.29 58.1198 126.446 57.0156 126.758 55.9844C127.081 54.9531 127.561 54.0469 128.196 53.2656C128.842 52.4844 129.649 51.875 130.618 51.4375C131.587 51 132.717 50.7812 134.008 50.7812C135.373 50.7812 136.571 51.0469 137.602 51.5781C138.644 52.1094 139.456 52.8594 140.04 53.8281C140.633 54.7969 140.941 55.9375 140.962 57.25H137.071C137.05 56.6458 136.915 56.1042 136.665 55.625C136.415 55.1458 136.061 54.7604 135.602 54.4688C135.144 54.1771 134.587 54.0312 133.93 54.0312C133.232 54.0312 132.649 54.1771 132.18 54.4688C131.722 54.7604 131.363 55.1615 131.102 55.6719C130.852 56.1719 130.675 56.7344 130.571 57.3594C130.477 57.974 130.43 58.6198 130.43 59.2969V59.7969C130.43 60.4844 130.477 61.1406 130.571 61.7656C130.675 62.3906 130.852 62.9531 131.102 63.4531C131.363 63.9427 131.722 64.3333 132.18 64.625C132.649 64.9167 133.243 65.0625 133.962 65.0625ZM147.679 44V68H143.538V44H147.679ZM158.802 68.3125C157.521 68.3125 156.37 68.1042 155.349 67.6875C154.328 67.2708 153.458 66.6927 152.739 65.9531C152.031 65.2031 151.484 64.3333 151.099 63.3438C150.724 62.3438 150.536 61.2708 150.536 60.125V59.5C150.536 58.1979 150.724 57.0156 151.099 55.9531C151.474 54.8802 152.005 53.9583 152.692 53.1875C153.38 52.4167 154.203 51.8229 155.161 51.4062C156.12 50.9896 157.177 50.7812 158.333 50.7812C159.531 50.7812 160.588 50.9844 161.505 51.3906C162.422 51.7865 163.187 52.349 163.802 53.0781C164.416 53.8073 164.88 54.6823 165.192 55.7031C165.505 56.7135 165.661 57.8333 165.661 59.0625V60.7969H152.411V57.9531H161.599V57.6406C161.578 56.9844 161.453 56.3854 161.224 55.8438C160.995 55.2917 160.64 54.8542 160.161 54.5312C159.682 54.1979 159.062 54.0312 158.302 54.0312C157.687 54.0312 157.151 54.1667 156.692 54.4375C156.245 54.6979 155.87 55.0729 155.567 55.5625C155.276 56.0417 155.057 56.6146 154.911 57.2812C154.765 57.9479 154.692 58.6875 154.692 59.5V60.125C154.692 60.8333 154.786 61.4896 154.974 62.0938C155.172 62.6979 155.458 63.224 155.833 63.6719C156.218 64.1094 156.677 64.4531 157.208 64.7031C157.75 64.9427 158.364 65.0625 159.052 65.0625C159.916 65.0625 160.698 64.8958 161.396 64.5625C162.104 64.2188 162.718 63.7135 163.239 63.0469L165.317 65.2031C164.963 65.724 164.484 66.224 163.88 66.7031C163.286 67.1823 162.567 67.5729 161.724 67.875C160.88 68.1667 159.906 68.3125 158.802 68.3125ZM180.189 45.25V68H175.892V45.25H180.189ZM189.361 55.0781V58.4688H179.064V55.0781H189.361ZM190.564 45.25V48.6406H179.064V45.25H190.564ZM191.687 59.7188V59.3906C191.687 58.151 191.864 57.0104 192.218 55.9688C192.573 54.9167 193.088 54.0052 193.765 53.2344C194.442 52.4635 195.271 51.8646 196.25 51.4375C197.229 51 198.343 50.7812 199.593 50.7812C200.864 50.7812 201.989 51 202.968 51.4375C203.958 51.8646 204.791 52.4635 205.468 53.2344C206.146 54.0052 206.661 54.9167 207.015 55.9688C207.369 57.0104 207.547 58.151 207.547 59.3906V59.7188C207.547 60.9479 207.369 62.0885 207.015 63.1406C206.661 64.1823 206.146 65.0938 205.468 65.875C204.791 66.6458 203.963 67.2448 202.984 67.6719C202.005 68.099 200.885 68.3125 199.625 68.3125C198.375 68.3125 197.255 68.099 196.265 67.6719C195.276 67.2448 194.442 66.6458 193.765 65.875C193.088 65.0938 192.573 64.1823 192.218 63.1406C191.864 62.0885 191.687 60.9479 191.687 59.7188ZM195.812 59.3906V59.7188C195.812 60.4583 195.885 61.151 196.031 61.7969C196.177 62.4427 196.401 63.0104 196.703 63.5C197.005 63.9896 197.396 64.375 197.875 64.6562C198.364 64.9271 198.948 65.0625 199.625 65.0625C200.291 65.0625 200.864 64.9271 201.343 64.6562C201.823 64.375 202.213 63.9896 202.515 63.5C202.828 63.0104 203.057 62.4427 203.203 61.7969C203.349 61.151 203.422 60.4583 203.422 59.7188V59.3906C203.422 58.6615 203.349 57.9792 203.203 57.3438C203.057 56.6979 202.828 56.1302 202.515 55.6406C202.213 55.1406 201.817 54.75 201.328 54.4688C200.849 54.1771 200.271 54.0312 199.593 54.0312C198.927 54.0312 198.354 54.1771 197.875 54.4688C197.396 54.75 197.005 55.1406 196.703 55.6406C196.401 56.1302 196.177 56.6979 196.031 57.3438C195.885 57.9792 195.812 58.6615 195.812 59.3906ZM214.264 54.5469V68H210.139V51.0938H214.045L214.264 54.5469ZM219.404 50.9844L219.342 54.8281C219.113 54.7865 218.852 54.7552 218.56 54.7344C218.279 54.7135 218.014 54.7031 217.764 54.7031C217.128 54.7031 216.571 54.7917 216.092 54.9688C215.613 55.1354 215.211 55.3802 214.889 55.7031C214.576 56.026 214.336 56.4219 214.17 56.8906C214.003 57.349 213.909 57.8698 213.889 58.4531L212.998 58.3438C212.998 57.2708 213.107 56.276 213.326 55.3594C213.545 54.4427 213.863 53.6406 214.279 52.9531C214.696 52.2656 215.217 51.7344 215.842 51.3594C216.477 50.974 217.206 50.7812 218.029 50.7812C218.258 50.7812 218.503 50.8021 218.764 50.8438C219.034 50.875 219.248 50.9219 219.404 50.9844ZM225.371 54.5625V68H221.246V51.0938H225.137L225.371 54.5625ZM224.762 58.9375H223.496C223.496 57.7604 223.637 56.6771 223.918 55.6875C224.21 54.6979 224.637 53.8385 225.199 53.1094C225.762 52.3698 226.455 51.7969 227.277 51.3906C228.111 50.9844 229.074 50.7812 230.168 50.7812C230.928 50.7812 231.626 50.8958 232.262 51.125C232.897 51.3438 233.444 51.6927 233.902 52.1719C234.371 52.6406 234.731 53.2552 234.981 54.0156C235.231 54.7656 235.356 55.6667 235.356 56.7188V68H231.231V57.1406C231.231 56.349 231.116 55.7292 230.887 55.2812C230.668 54.8333 230.35 54.5208 229.934 54.3438C229.517 54.1562 229.017 54.0625 228.434 54.0625C227.788 54.0625 227.231 54.1927 226.762 54.4531C226.303 54.7031 225.923 55.0521 225.621 55.5C225.33 55.9479 225.111 56.4635 224.965 57.0469C224.83 57.6302 224.762 58.2604 224.762 58.9375ZM235.043 58.1719L233.34 58.4844C233.35 57.4219 233.496 56.4271 233.777 55.5C234.059 54.5625 234.47 53.7448 235.012 53.0469C235.564 52.3385 236.246 51.7865 237.059 51.3906C237.882 50.9844 238.83 50.7812 239.902 50.7812C240.736 50.7812 241.486 50.901 242.152 51.1406C242.83 51.3698 243.408 51.7396 243.887 52.25C244.366 52.75 244.731 53.401 244.981 54.2031C245.241 55.0052 245.371 55.9844 245.371 57.1406V68H241.215V57.125C241.215 56.3021 241.1 55.6719 240.871 55.2344C240.652 54.7969 240.335 54.4948 239.918 54.3281C239.501 54.151 239.012 54.0625 238.449 54.0625C237.876 54.0625 237.376 54.1719 236.949 54.3906C236.533 54.599 236.178 54.8906 235.887 55.2656C235.606 55.6406 235.392 56.0781 235.246 56.5781C235.111 57.0677 235.043 57.599 235.043 58.1719ZM256.26 68.3125C254.979 68.3125 253.828 68.1042 252.807 67.6875C251.786 67.2708 250.916 66.6927 250.198 65.9531C249.489 65.2031 248.942 64.3333 248.557 63.3438C248.182 62.3438 247.994 61.2708 247.994 60.125V59.5C247.994 58.1979 248.182 57.0156 248.557 55.9531C248.932 54.8802 249.463 53.9583 250.151 53.1875C250.838 52.4167 251.661 51.8229 252.619 51.4062C253.578 50.9896 254.635 50.7812 255.791 50.7812C256.989 50.7812 258.046 50.9844 258.963 51.3906C259.88 51.7865 260.645 52.349 261.26 53.0781C261.875 53.8073 262.338 54.6823 262.651 55.7031C262.963 56.7135 263.119 57.8333 263.119 59.0625V60.7969H249.869V57.9531H259.057V57.6406C259.036 56.9844 258.911 56.3854 258.682 55.8438C258.453 55.2917 258.099 54.8542 257.619 54.5312C257.14 54.1979 256.52 54.0312 255.76 54.0312C255.145 54.0312 254.609 54.1667 254.151 54.4375C253.703 54.6979 253.328 55.0729 253.026 55.5625C252.734 56.0417 252.515 56.6146 252.369 57.2812C252.224 57.9479 252.151 58.6875 252.151 59.5V60.125C252.151 60.8333 252.244 61.4896 252.432 62.0938C252.63 62.6979 252.916 63.224 253.291 63.6719C253.677 64.1094 254.135 64.4531 254.666 64.7031C255.208 64.9427 255.823 65.0625 256.51 65.0625C257.375 65.0625 258.156 64.8958 258.854 64.5625C259.562 64.2188 260.177 63.7135 260.698 63.0469L262.776 65.2031C262.421 65.724 261.942 66.224 261.338 66.7031C260.744 67.1823 260.026 67.5729 259.182 67.875C258.338 68.1667 257.364 68.3125 256.26 68.3125ZM275.618 64.4062V44H279.774V68H276.024L275.618 64.4062ZM264.758 59.75V59.4219C264.758 58.1302 264.904 56.9583 265.196 55.9062C265.498 54.8438 265.935 53.9323 266.508 53.1719C267.081 52.4115 267.774 51.8229 268.586 51.4062C269.409 50.9896 270.342 50.7812 271.383 50.7812C272.394 50.7812 273.274 50.9844 274.024 51.3906C274.784 51.7969 275.43 52.375 275.961 53.125C276.503 53.875 276.935 54.7656 277.258 55.7969C277.581 56.8177 277.816 57.9427 277.961 59.1719V60.0625C277.816 61.2604 277.581 62.3594 277.258 63.3594C276.935 64.3594 276.503 65.2344 275.961 65.9844C275.43 66.724 274.784 67.2969 274.024 67.7031C273.264 68.1094 272.373 68.3125 271.352 68.3125C270.321 68.3125 269.394 68.099 268.571 67.6719C267.758 67.2448 267.066 66.6458 266.493 65.875C265.93 65.1042 265.498 64.1979 265.196 63.1562C264.904 62.1146 264.758 60.9792 264.758 59.75ZM268.899 59.4219V59.75C268.899 60.4792 268.961 61.1615 269.086 61.7969C269.211 62.4323 269.415 62.9948 269.696 63.4844C269.977 63.9635 270.336 64.3385 270.774 64.6094C271.222 64.8802 271.764 65.0156 272.399 65.0156C273.211 65.0156 273.878 64.8385 274.399 64.4844C274.93 64.1198 275.342 63.625 275.633 63C275.925 62.3646 276.112 61.651 276.196 60.8594V58.4062C276.154 57.7812 276.045 57.2031 275.868 56.6719C275.701 56.1406 275.461 55.6823 275.149 55.2969C274.847 54.9115 274.472 54.6094 274.024 54.3906C273.576 54.1719 273.045 54.0625 272.43 54.0625C271.795 54.0625 271.253 54.2031 270.805 54.4844C270.357 54.7552 269.993 55.1354 269.711 55.625C269.43 56.1146 269.222 56.6823 269.086 57.3281C268.961 57.974 268.899 58.6719 268.899 59.4219Z" fill="white"/>
<defs>
<linearGradient id="paint0_linear_125_1858" x1="36.9596" y1="8" x2="36.9596" y2="68" gradientUnits="userSpaceOnUse">
<stop stop-color="#EDC211"/>
<stop offset="1" stop-color="#E2A60E"/>
</linearGradient>
</defs>
</svg>
